<svg width="218" height="191" viewBox="0 0 218 191" fill="none" xmlns="http://www.w3.org/2000/svg">
<path fill-rule="evenodd" clip-rule="evenodd" d="M187.125 41.4971C201.962 41.4971 214 53.467 214 68.2204C214 82.9738 201.962 94.9437 187.125 94.9437C172.287 94.9437 160.249 82.9738 160.249 68.2204C160.249 58.7077 165.253 50.3471 172.79 45.6162L164.453 32.8306H131.395L126.391 44.0664C135.465 48.3589 141.751 57.5555 141.751 68.2204C141.751 82.9738 129.713 94.9437 114.875 94.9437C100.038 94.9437 88 82.9738 88 68.2204C88 53.467 100.038 41.4971 114.875 41.4971C116.126 41.4971 117.347 41.5786 118.557 41.7418L125.037 27.1617C125.704 25.6527 127.19 24.7555 128.749 24.7555H166.637C167.375 24.7555 168.062 24.9492 168.667 25.2959L176.789 8.0955H162.895C160.649 8.0955 158.834 6.28064 158.834 4.05794C158.834 1.83525 160.649 0 162.895 0H183.156V0.0203917C183.73 0.0203917 184.315 0.142742 184.869 0.397638C186.899 1.33566 187.771 3.73168 186.817 5.75045L174.071 32.7796L180.326 42.3637C182.5 41.7928 184.776 41.4971 187.125 41.4971ZM123.099 51.4686L116.383 66.5584C115.48 68.5976 113.081 69.5254 111.03 68.6282C108.979 67.731 108.046 65.3451 108.949 63.306L115.06 49.5824C114.999 49.5824 114.937 49.5824 114.875 49.5824C104.519 49.5824 96.1313 57.9328 96.1313 68.2204C96.1313 78.508 104.529 86.8584 114.875 86.8584C125.232 86.8584 133.62 78.508 133.62 68.2204C133.62 60.859 129.333 54.4968 123.099 51.4686ZM185.104 49.6843L191.626 59.6661C192.846 61.5319 192.313 64.0299 190.437 65.2432C188.56 66.4565 186.048 65.9263 184.828 64.0605L177.209 52.3964C171.908 55.6897 168.37 61.5421 168.37 68.2204C168.37 78.508 176.768 86.8584 187.114 86.8584C197.471 86.8584 205.858 78.508 205.858 68.2204C205.858 57.9226 197.46 49.5824 187.114 49.5824C186.448 49.5722 185.771 49.613 185.104 49.6843Z" fill="#F0F0F0"/>
<rect x="62" y="8" width="82" height="10" rx="5" fill="#F0F0F0"/>
<rect x="60" y="79" width="42" height="10" rx="5" fill="#F0F0F0"/>
<rect x="35" y="59" width="82" height="10" rx="5" fill="#F0F0F0"/>
<rect x="57" y="41" width="65" height="8" rx="4" fill="#F0F0F0"/>
<rect x="28" y="24" width="142" height="9" rx="4.5" fill="#F0F0F0"/>
<rect x="43" y="8" width="14" height="10" rx="5" fill="#F0F0F0"/>
<rect x="16" y="59" width="14" height="10" rx="5" fill="#F0F0F0"/>
<rect x="1" y="59" width="10" height="10" rx="5" fill="#F0F0F0"/>
<rect x="43" y="41" width="10" height="8" rx="4" fill="#F0F0F0"/>
<path d="M87.5 74.1031C87.5 77.6929 83.5898 79 80 79C76.4102 79 92.9501 85.103 93.5001 74.1031C94.0001 64.1031 76.4103 69.0097 80.0001 69.0097C83.59 69.0097 87.5 70.5132 87.5 74.1031Z" fill="#F0F0F0"/>
<path d="M103.5 90.9918C103.5 93.7533 99.2614 88.9918 96.5 88.9918C93.7386 88.9918 90.5 88.2533 90.5 85.4918C90.5 82.7304 92.7386 82.4918 95.5 82.4918C98.2614 82.4918 103.5 88.2304 103.5 90.9918Z" fill="#F0F0F0"/>
<path d="M34.9983 148.32C32.1716 148.32 29.7583 147.827 27.7583 146.84C25.7849 145.853 24.2649 144.48 23.1983 142.72C22.1583 140.933 21.6383 138.867 21.6383 136.52C21.6383 134.2 22.0383 132.027 22.8383 130C23.6383 127.947 24.7849 126.147 26.2783 124.6C27.7983 123.053 29.5983 121.853 31.6783 121C33.7849 120.12 36.1583 119.68 38.7983 119.68C41.1183 119.68 43.1716 120.053 44.9583 120.8C46.7449 121.547 48.1183 122.627 49.0783 124.04L46.1983 126.52C45.3716 125.453 44.3183 124.64 43.0383 124.08C41.7583 123.52 40.2516 123.24 38.5183 123.24C36.5183 123.24 34.7183 123.587 33.1183 124.28C31.5449 124.947 30.1983 125.893 29.0783 127.12C27.9583 128.32 27.1049 129.707 26.5183 131.28C25.9316 132.853 25.6383 134.52 25.6383 136.28C25.6383 137.96 25.9983 139.44 26.7183 140.72C27.4649 141.973 28.5449 142.96 29.9583 143.68C31.3983 144.4 33.1716 144.76 35.2783 144.76C36.9849 144.76 38.5449 144.48 39.9583 143.92C41.3983 143.36 42.6649 142.533 43.7583 141.44L46.0783 144.08C44.7983 145.493 43.1983 146.56 41.2783 147.28C39.3583 147.973 37.2649 148.32 34.9983 148.32ZM56.4758 148L58.6358 137.2L59.1158 139.84L51.0358 120H54.9558L61.7558 136.64L59.5158 136.68L72.9558 120H77.1958L61.2358 139.88L62.6358 137.2L60.4758 148H56.4758ZM88.1233 148.32C85.2966 148.32 82.8833 147.827 80.8833 146.84C78.9099 145.853 77.3899 144.48 76.3233 142.72C75.2833 140.933 74.7633 138.867 74.7633 136.52C74.7633 134.2 75.1633 132.027 75.9633 130C76.7633 127.947 77.9099 126.147 79.4033 124.6C80.9233 123.053 82.7233 121.853 84.8033 121C86.9099 120.12 89.2833 119.68 91.9233 119.68C94.2433 119.68 96.2966 120.053 98.0833 120.8C99.8699 121.547 101.243 122.627 102.203 124.04L99.3233 126.52C98.4966 125.453 97.4433 124.64 96.1633 124.08C94.8833 123.52 93.3766 123.24 91.6433 123.24C89.6433 123.24 87.8433 123.587 86.2433 124.28C84.6699 124.947 83.3233 125.893 82.2033 127.12C81.0833 128.32 80.2299 129.707 79.6433 131.28C79.0566 132.853 78.7633 134.52 78.7633 136.28C78.7633 137.96 79.1233 139.44 79.8433 140.72C80.5899 141.973 81.6699 142.96 83.0833 143.68C84.5233 144.4 86.2966 144.76 88.4033 144.76C90.1099 144.76 91.6699 144.48 93.0833 143.92C94.5233 143.36 95.7899 142.533 96.8833 141.44L99.2033 144.08C97.9233 145.493 96.3233 146.56 94.4033 147.28C92.4833 147.973 90.3899 148.32 88.1233 148.32ZM103.35 148L108.95 120H112.95L108.03 144.52H123.23L122.55 148H103.35ZM127.1 148L132.7 120H136.7L131.1 148H127.1ZM139.482 148L145.082 120H148.362L161.802 143.12L160.602 142.96L165.162 120H169.162L163.562 148H160.282L146.842 124.88L148.042 125.04L143.482 148H139.482ZM185.623 148.32C182.85 148.32 180.463 147.827 178.463 146.84C176.49 145.853 174.957 144.48 173.863 142.72C172.797 140.933 172.263 138.867 172.263 136.52C172.263 134.2 172.663 132.027 173.463 130C174.263 127.947 175.41 126.147 176.903 124.6C178.423 123.053 180.237 121.853 182.343 121C184.477 120.12 186.863 119.68 189.503 119.68C191.957 119.68 194.09 120.053 195.903 120.8C197.743 121.547 199.21 122.613 200.303 124L197.423 126.44C196.49 125.347 195.343 124.547 193.983 124.04C192.65 123.507 191.103 123.24 189.343 123.24C187.343 123.24 185.543 123.587 183.943 124.28C182.343 124.947 180.97 125.88 179.823 127.08C178.677 128.253 177.797 129.64 177.183 131.24C176.57 132.813 176.263 134.493 176.263 136.28C176.263 137.96 176.623 139.44 177.343 140.72C178.09 141.973 179.183 142.96 180.623 143.68C182.09 144.4 183.903 144.76 186.063 144.76C187.637 144.76 189.09 144.493 190.423 143.96C191.783 143.427 193.063 142.653 194.263 141.64L195.823 144.84C194.463 145.933 192.89 146.787 191.103 147.4C189.343 148.013 187.517 148.32 185.623 148.32ZM192.143 144.24L194.183 133.84H198.023L195.823 144.84L192.143 144.24Z" fill="#F0F0F0"/>
<path d="M22.0128 181.48C19.1595 181.48 16.6928 180.973 14.6128 179.96C12.5595 178.92 10.9728 177.493 9.85281 175.68C8.73281 173.84 8.17281 171.72 8.17281 169.32C8.17281 166.947 8.58615 164.733 9.41281 162.68C10.2661 160.627 11.4528 158.853 12.9728 157.36C14.5195 155.84 16.3461 154.653 18.4528 153.8C20.5861 152.947 22.9595 152.52 25.5728 152.52C28.0795 152.52 30.2928 152.947 32.2128 153.8C34.1328 154.653 35.5861 155.88 36.5728 157.48L31.8928 161.32C31.1728 160.253 30.2528 159.44 29.1328 158.88C28.0128 158.32 26.6795 158.04 25.1328 158.04C23.5595 158.04 22.1328 158.32 20.8528 158.88C19.5728 159.413 18.4661 160.187 17.5328 161.2C16.6261 162.187 15.9328 163.347 15.4528 164.68C14.9728 166.013 14.7328 167.427 14.7328 168.92C14.7328 170.333 15.0395 171.573 15.6528 172.64C16.2661 173.68 17.1595 174.493 18.3328 175.08C19.5061 175.667 20.9195 175.96 22.5728 175.96C24.0128 175.96 25.3595 175.707 26.6128 175.2C27.8661 174.667 28.9995 173.84 30.0128 172.72L33.8528 176.64C32.3861 178.347 30.6395 179.587 28.6128 180.36C26.6128 181.107 24.4128 181.48 22.0128 181.48ZM50.5628 181.48C47.7361 181.48 45.2961 180.973 43.2428 179.96C41.2161 178.92 39.6561 177.493 38.5628 175.68C37.4695 173.84 36.9228 171.72 36.9228 169.32C36.9228 166.92 37.3361 164.707 38.1628 162.68C38.9895 160.627 40.1628 158.853 41.6828 157.36C43.2295 155.84 45.0561 154.653 47.1628 153.8C49.2961 152.947 51.6561 152.52 54.2428 152.52C57.0695 152.52 59.4961 153.04 61.5228 154.08C63.5761 155.093 65.1495 156.52 66.2428 158.36C67.3361 160.173 67.8828 162.28 67.8828 164.68C67.8828 167.08 67.4695 169.307 66.6428 171.36C65.8161 173.387 64.6295 175.16 63.0828 176.68C61.5628 178.173 59.7361 179.347 57.6028 180.2C55.4961 181.053 53.1495 181.48 50.5628 181.48ZM51.1228 175.96C52.6961 175.96 54.1095 175.68 55.3628 175.12C56.6428 174.533 57.7228 173.733 58.6028 172.72C59.4828 171.707 60.1495 170.547 60.6028 169.24C61.0828 167.907 61.3228 166.507 61.3228 165.04C61.3228 163.653 61.0295 162.44 60.4428 161.4C59.8561 160.333 58.9895 159.507 57.8428 158.92C56.7228 158.333 55.3361 158.04 53.6828 158.04C52.1095 158.04 50.6961 158.333 49.4428 158.92C48.1895 159.48 47.1095 160.267 46.2028 161.28C45.3228 162.293 44.6428 163.467 44.1628 164.8C43.7095 166.107 43.4828 167.493 43.4828 168.96C43.4828 170.347 43.7761 171.573 44.3628 172.64C44.9761 173.68 45.8428 174.493 46.9628 175.08C48.1095 175.667 49.4961 175.96 51.1228 175.96ZM69.7928 181L75.3928 153H80.7528L92.7928 173.28L90.6728 173.16L94.6728 153H101.073L95.4728 181H90.1528L78.0728 160.72L80.2328 160.84L76.1928 181H69.7928ZM102.098 181L107.698 153H113.058L125.098 173.28L122.977 173.16L126.978 153H133.378L127.778 181H122.458L110.378 160.72L112.538 160.84L108.498 181H102.098ZM143.722 164.28H157.202L156.202 169.32H142.722L143.722 164.28ZM141.882 175.8H157.162L156.082 181H134.402L140.002 153H161.162L160.082 158.2H145.402L141.882 175.8ZM175.958 181.48C173.105 181.48 170.638 180.973 168.558 179.96C166.505 178.92 164.918 177.493 163.798 175.68C162.678 173.84 162.118 171.72 162.118 169.32C162.118 166.947 162.531 164.733 163.358 162.68C164.211 160.627 165.398 158.853 166.918 157.36C168.465 155.84 170.291 154.653 172.398 153.8C174.531 152.947 176.905 152.52 179.518 152.52C182.025 152.52 184.238 152.947 186.158 153.8C188.078 154.653 189.531 155.88 190.518 157.48L185.838 161.32C185.118 160.253 184.198 159.44 183.078 158.88C181.958 158.32 180.625 158.04 179.078 158.04C177.505 158.04 176.078 158.32 174.798 158.88C173.518 159.413 172.411 160.187 171.478 161.2C170.571 162.187 169.878 163.347 169.398 164.68C168.918 166.013 168.678 167.427 168.678 168.92C168.678 170.333 168.985 171.573 169.598 172.64C170.211 173.68 171.105 174.493 172.278 175.08C173.451 175.667 174.865 175.96 176.518 175.96C177.958 175.96 179.305 175.707 180.558 175.2C181.811 174.667 182.945 173.84 183.958 172.72L187.798 176.64C186.331 178.347 184.585 179.587 182.558 180.36C180.558 181.107 178.358 181.48 175.958 181.48ZM196.101 181L200.621 158.28H191.661L192.741 153H217.141L216.061 158.28H207.141L202.581 181H196.101Z" fill="#F0F0F0"/>
</svg>
