<svg width="212" height="82" viewBox="0 0 212 82" fill="none" xmlns="http://www.w3.org/2000/svg">
<path d="M28.9983 39.32C26.1716 39.32 23.7583 38.8267 21.7583 37.84C19.7849 36.8533 18.2649 35.48 17.1983 33.72C16.1583 31.9333 15.6383 29.8667 15.6383 27.52C15.6383 25.2 16.0383 23.0267 16.8383 21C17.6383 18.9467 18.7849 17.1467 20.2783 15.6C21.7983 14.0533 23.5983 12.8533 25.6783 12C27.7849 11.12 30.1583 10.68 32.7983 10.68C35.1183 10.68 37.1716 11.0533 38.9583 11.8C40.7449 12.5467 42.1183 13.6267 43.0783 15.04L40.1983 17.52C39.3716 16.4533 38.3183 15.64 37.0383 15.08C35.7583 14.52 34.2516 14.24 32.5183 14.24C30.5183 14.24 28.7183 14.5867 27.1183 15.28C25.5449 15.9467 24.1983 16.8933 23.0783 18.12C21.9583 19.32 21.1049 20.7067 20.5183 22.28C19.9316 23.8533 19.6383 25.52 19.6383 27.28C19.6383 28.96 19.9983 30.44 20.7183 31.72C21.4649 32.9733 22.5449 33.96 23.9583 34.68C25.3983 35.4 27.1716 35.76 29.2783 35.76C30.9849 35.76 32.5449 35.48 33.9583 34.92C35.3983 34.36 36.6649 33.5333 37.7583 32.44L40.0783 35.08C38.7983 36.4933 37.1983 37.56 35.2783 38.28C33.3583 38.9733 31.2649 39.32 28.9983 39.32ZM50.4758 39L52.6358 28.2L53.1158 30.84L45.0358 11H48.9558L55.7558 27.64L53.5158 27.68L66.9558 11H71.1958L55.2358 30.88L56.6358 28.2L54.4758 39H50.4758ZM82.1233 39.32C79.2966 39.32 76.8833 38.8267 74.8833 37.84C72.9099 36.8533 71.3899 35.48 70.3233 33.72C69.2833 31.9333 68.7633 29.8667 68.7633 27.52C68.7633 25.2 69.1633 23.0267 69.9633 21C70.7633 18.9467 71.9099 17.1467 73.4033 15.6C74.9233 14.0533 76.7233 12.8533 78.8033 12C80.9099 11.12 83.2833 10.68 85.9233 10.68C88.2433 10.68 90.2966 11.0533 92.0833 11.8C93.8699 12.5467 95.2433 13.6267 96.2033 15.04L93.3233 17.52C92.4966 16.4533 91.4433 15.64 90.1633 15.08C88.8833 14.52 87.3766 14.24 85.6433 14.24C83.6433 14.24 81.8433 14.5867 80.2433 15.28C78.6699 15.9467 77.3233 16.8933 76.2033 18.12C75.0833 19.32 74.2299 20.7067 73.6433 22.28C73.0566 23.8533 72.7633 25.52 72.7633 27.28C72.7633 28.96 73.1233 30.44 73.8433 31.72C74.5899 32.9733 75.6699 33.96 77.0833 34.68C78.5233 35.4 80.2966 35.76 82.4033 35.76C84.1099 35.76 85.6699 35.48 87.0833 34.92C88.5233 34.36 89.7899 33.5333 90.8833 32.44L93.2033 35.08C91.9233 36.4933 90.3233 37.56 88.4033 38.28C86.4833 38.9733 84.3899 39.32 82.1233 39.32ZM97.3495 39L102.95 11H106.95L102.03 35.52H117.23L116.55 39H97.3495ZM121.1 39L126.7 11H130.7L125.1 39H121.1ZM133.482 39L139.082 11H142.362L155.802 34.12L154.602 33.96L159.162 11H163.162L157.562 39H154.282L140.842 15.88L142.042 16.04L137.482 39H133.482ZM179.623 39.32C176.85 39.32 174.463 38.8267 172.463 37.84C170.49 36.8533 168.957 35.48 167.863 33.72C166.797 31.9333 166.263 29.8667 166.263 27.52C166.263 25.2 166.663 23.0267 167.463 21C168.263 18.9467 169.41 17.1467 170.903 15.6C172.423 14.0533 174.237 12.8533 176.343 12C178.477 11.12 180.863 10.68 183.503 10.68C185.957 10.68 188.09 11.0533 189.903 11.8C191.743 12.5467 193.21 13.6133 194.303 15L191.423 17.44C190.49 16.3467 189.343 15.5467 187.983 15.04C186.65 14.5067 185.103 14.24 183.343 14.24C181.343 14.24 179.543 14.5867 177.943 15.28C176.343 15.9467 174.97 16.88 173.823 18.08C172.677 19.2533 171.797 20.64 171.183 22.24C170.57 23.8133 170.263 25.4933 170.263 27.28C170.263 28.96 170.623 30.44 171.343 31.72C172.09 32.9733 173.183 33.96 174.623 34.68C176.09 35.4 177.903 35.76 180.063 35.76C181.637 35.76 183.09 35.4933 184.423 34.96C185.783 34.4267 187.063 33.6533 188.263 32.64L189.823 35.84C188.463 36.9333 186.89 37.7867 185.103 38.4C183.343 39.0133 181.517 39.32 179.623 39.32ZM186.143 35.24L188.183 24.84H192.023L189.823 35.84L186.143 35.24Z" fill="#F0F0F0"/>
<path d="M16.0128 72.48C13.1595 72.48 10.6928 71.9733 8.61281 70.96C6.55948 69.92 4.97281 68.4933 3.85281 66.68C2.73281 64.84 2.17281 62.72 2.17281 60.32C2.17281 57.9467 2.58615 55.7333 3.41281 53.68C4.26615 51.6267 5.45281 49.8533 6.97281 48.36C8.51948 46.84 10.3461 45.6533 12.4528 44.8C14.5861 43.9467 16.9595 43.52 19.5728 43.52C22.0795 43.52 24.2928 43.9467 26.2128 44.8C28.1328 45.6533 29.5861 46.88 30.5728 48.48L25.8928 52.32C25.1728 51.2533 24.2528 50.44 23.1328 49.88C22.0128 49.32 20.6795 49.04 19.1328 49.04C17.5595 49.04 16.1328 49.32 14.8528 49.88C13.5728 50.4133 12.4661 51.1867 11.5328 52.2C10.6261 53.1867 9.93281 54.3467 9.45281 55.68C8.97281 57.0133 8.73281 58.4267 8.73281 59.92C8.73281 61.3333 9.03948 62.5733 9.65281 63.64C10.2661 64.68 11.1595 65.4933 12.3328 66.08C13.5061 66.6667 14.9195 66.96 16.5728 66.96C18.0128 66.96 19.3595 66.7067 20.6128 66.2C21.8661 65.6667 22.9995 64.84 24.0128 63.72L27.8528 67.64C26.3861 69.3467 24.6395 70.5867 22.6128 71.36C20.6128 72.1067 18.4128 72.48 16.0128 72.48ZM44.5628 72.48C41.7361 72.48 39.2961 71.9733 37.2428 70.96C35.2161 69.92 33.6561 68.4933 32.5628 66.68C31.4695 64.84 30.9228 62.72 30.9228 60.32C30.9228 57.92 31.3361 55.7067 32.1628 53.68C32.9895 51.6267 34.1628 49.8533 35.6828 48.36C37.2295 46.84 39.0561 45.6533 41.1628 44.8C43.2961 43.9467 45.6561 43.52 48.2428 43.52C51.0695 43.52 53.4961 44.04 55.5228 45.08C57.5761 46.0933 59.1495 47.52 60.2428 49.36C61.3361 51.1733 61.8828 53.28 61.8828 55.68C61.8828 58.08 61.4695 60.3067 60.6428 62.36C59.8161 64.3867 58.6295 66.16 57.0828 67.68C55.5628 69.1733 53.7361 70.3467 51.6028 71.2C49.4961 72.0533 47.1495 72.48 44.5628 72.48ZM45.1228 66.96C46.6961 66.96 48.1095 66.68 49.3628 66.12C50.6428 65.5333 51.7228 64.7333 52.6028 63.72C53.4828 62.7067 54.1495 61.5467 54.6028 60.24C55.0828 58.9067 55.3228 57.5067 55.3228 56.04C55.3228 54.6533 55.0295 53.44 54.4428 52.4C53.8561 51.3333 52.9895 50.5067 51.8428 49.92C50.7228 49.3333 49.3361 49.04 47.6828 49.04C46.1095 49.04 44.6961 49.3333 43.4428 49.92C42.1895 50.48 41.1095 51.2667 40.2028 52.28C39.3228 53.2933 38.6428 54.4667 38.1628 55.8C37.7095 57.1067 37.4828 58.4933 37.4828 59.96C37.4828 61.3467 37.7761 62.5733 38.3628 63.64C38.9761 64.68 39.8428 65.4933 40.9628 66.08C42.1095 66.6667 43.4961 66.96 45.1228 66.96ZM63.7928 72L69.3928 44H74.7528L86.7928 64.28L84.6728 64.16L88.6728 44H95.0728L89.4728 72H84.1528L72.0728 51.72L74.2328 51.84L70.1928 72H63.7928ZM96.0975 72L101.698 44H107.058L119.098 64.28L116.977 64.16L120.978 44H127.378L121.778 72H116.458L104.378 51.72L106.538 51.84L102.498 72H96.0975ZM137.722 55.28H151.202L150.202 60.32H136.722L137.722 55.28ZM135.882 66.8H151.162L150.082 72H128.402L134.002 44H155.162L154.082 49.2H139.402L135.882 66.8ZM169.958 72.48C167.105 72.48 164.638 71.9733 162.558 70.96C160.505 69.92 158.918 68.4933 157.798 66.68C156.678 64.84 156.118 62.72 156.118 60.32C156.118 57.9467 156.531 55.7333 157.358 53.68C158.211 51.6267 159.398 49.8533 160.918 48.36C162.465 46.84 164.291 45.6533 166.398 44.8C168.531 43.9467 170.905 43.52 173.518 43.52C176.025 43.52 178.238 43.9467 180.158 44.8C182.078 45.6533 183.531 46.88 184.518 48.48L179.838 52.32C179.118 51.2533 178.198 50.44 177.078 49.88C175.958 49.32 174.625 49.04 173.078 49.04C171.505 49.04 170.078 49.32 168.798 49.88C167.518 50.4133 166.411 51.1867 165.478 52.2C164.571 53.1867 163.878 54.3467 163.398 55.68C162.918 57.0133 162.678 58.4267 162.678 59.92C162.678 61.3333 162.985 62.5733 163.598 63.64C164.211 64.68 165.105 65.4933 166.278 66.08C167.451 66.6667 168.865 66.96 170.518 66.96C171.958 66.96 173.305 66.7067 174.558 66.2C175.811 65.6667 176.945 64.84 177.958 63.72L181.798 67.64C180.331 69.3467 178.585 70.5867 176.558 71.36C174.558 72.1067 172.358 72.48 169.958 72.48ZM190.101 72L194.621 49.28H185.661L186.741 44H211.141L210.061 49.28H201.141L196.581 72H190.101Z" fill="#F0F0F0"/>
</svg>
