<svg width="191" height="72" viewBox="0 0 191 72" fill="none" xmlns="http://www.w3.org/2000/svg">
<path d="M29.6857 33.34C27.2603 33.34 25.1863 32.9093 23.4637 32.048C21.741 31.1867 20.415 29.9967 19.4857 28.478C18.579 26.9367 18.1257 25.1687 18.1257 23.174C18.1257 21.1567 18.4657 19.2867 19.1457 17.564C19.8483 15.8187 20.8457 14.3 22.1377 13.008C23.4297 11.716 24.971 10.7073 26.7617 9.982C28.5523 9.234 30.5583 8.86 32.7797 8.86C34.8423 8.86 36.6557 9.2 38.2197 9.88C39.7837 10.56 40.985 11.546 41.8237 12.838L38.6277 15.524C37.9703 14.6173 37.1317 13.926 36.1117 13.45C35.0917 12.974 33.879 12.736 32.4737 12.736C30.955 12.736 29.5837 12.9967 28.3597 13.518C27.1357 14.0393 26.093 14.776 25.2317 15.728C24.3703 16.6573 23.713 17.7453 23.2597 18.992C22.8063 20.216 22.5797 21.5193 22.5797 22.902C22.5797 24.194 22.863 25.3387 23.4297 26.336C23.9963 27.3333 24.835 28.104 25.9457 28.648C27.0563 29.192 28.4163 29.464 30.0257 29.464C31.363 29.464 32.5983 29.2373 33.7317 28.784C34.8877 28.3307 35.9077 27.6393 36.7917 26.71L39.3757 29.498C38.2197 30.8127 36.803 31.7873 35.1257 32.422C33.471 33.034 31.6577 33.34 29.6857 33.34ZM47.834 33L49.704 23.514L50.214 26.37L43.278 9.2H47.664L53.206 22.936L50.622 22.97L61.74 9.2H66.364L52.628 26.404L54.124 23.514L52.22 33H47.834ZM75.5392 33.34C73.1139 33.34 71.0399 32.9093 69.3172 32.048C67.5945 31.1867 66.2685 29.9967 65.3392 28.478C64.4325 26.9367 63.9792 25.1687 63.9792 23.174C63.9792 21.1567 64.3192 19.2867 64.9992 17.564C65.7019 15.8187 66.6992 14.3 67.9912 13.008C69.2832 11.716 70.8245 10.7073 72.6152 9.982C74.4059 9.234 76.4119 8.86 78.6332 8.86C80.6959 8.86 82.5092 9.2 84.0732 9.88C85.6372 10.56 86.8385 11.546 87.6772 12.838L84.4812 15.524C83.8239 14.6173 82.9852 13.926 81.9652 13.45C80.9452 12.974 79.7325 12.736 78.3272 12.736C76.8085 12.736 75.4372 12.9967 74.2132 13.518C72.9892 14.0393 71.9465 14.776 71.0852 15.728C70.2239 16.6573 69.5665 17.7453 69.1132 18.992C68.6599 20.216 68.4332 21.5193 68.4332 22.902C68.4332 24.194 68.7165 25.3387 69.2832 26.336C69.8499 27.3333 70.6885 28.104 71.7992 28.648C72.9099 29.192 74.2699 29.464 75.8792 29.464C77.2165 29.464 78.4519 29.2373 79.5852 28.784C80.7412 28.3307 81.7612 27.6393 82.6452 26.71L85.2292 29.498C84.0732 30.8127 82.6565 31.7873 80.9792 32.422C79.3245 33.034 77.5112 33.34 75.5392 33.34ZM88.1723 33L92.9323 9.2H97.3523L93.3403 29.26H105.784L105.036 33H88.1723ZM108.526 33L113.286 9.2H117.706L112.946 33H108.526ZM119.383 33L124.143 9.2H127.781L138.627 27.662L137.233 27.492L140.871 9.2H145.257L140.497 33H136.859L126.047 14.538L127.441 14.708L123.769 33H119.383ZM158.979 33.34C156.599 33.34 154.547 32.9093 152.825 32.048C151.102 31.1867 149.765 29.9967 148.813 28.478C147.883 26.9367 147.419 25.1687 147.419 23.174C147.419 21.1567 147.759 19.2867 148.439 17.564C149.141 15.8187 150.139 14.3 151.431 13.008C152.723 11.716 154.275 10.7073 156.089 9.982C157.925 9.234 159.965 8.86 162.209 8.86C164.385 8.86 166.277 9.2 167.887 9.88C169.496 10.56 170.788 11.5233 171.763 12.77L168.567 15.422C167.773 14.47 166.833 13.79 165.745 13.382C164.679 12.9513 163.433 12.736 162.005 12.736C160.463 12.736 159.069 12.9967 157.823 13.518C156.576 14.0167 155.511 14.7307 154.627 15.66C153.743 16.5893 153.063 17.6773 152.587 18.924C152.111 20.148 151.873 21.474 151.873 22.902C151.873 24.194 152.156 25.3387 152.723 26.336C153.289 27.3333 154.139 28.104 155.273 28.648C156.406 29.192 157.811 29.464 159.489 29.464C160.735 29.464 161.903 29.26 162.991 28.852C164.101 28.4213 165.144 27.7867 166.119 26.948L167.853 30.416C166.674 31.3453 165.303 32.0707 163.739 32.592C162.197 33.0907 160.611 33.34 158.979 33.34ZM163.841 29.736L165.609 20.828H169.791L167.853 30.416L163.841 29.736Z" fill="white"/>
<path d="M14.3729 63.504C11.8049 63.504 9.56092 63.036 7.64092 62.1C5.74492 61.164 4.28092 59.868 3.24892 58.212C2.21692 56.532 1.70092 54.6 1.70092 52.416C1.70092 50.232 2.08492 48.216 2.85292 46.368C3.62092 44.52 4.70092 42.924 6.09292 41.58C7.48492 40.212 9.14092 39.156 11.0609 38.412C13.0049 37.668 15.1529 37.296 17.5049 37.296C19.8329 37.296 21.8969 37.704 23.6969 38.52C25.4969 39.336 26.8409 40.512 27.7289 42.048L22.5809 46.152C22.0049 45.192 21.2489 44.46 20.3129 43.956C19.4009 43.452 18.3089 43.2 17.0369 43.2C15.8129 43.2 14.6969 43.416 13.6889 43.848C12.7049 44.28 11.8529 44.892 11.1329 45.684C10.4129 46.476 9.86092 47.412 9.47692 48.492C9.09292 49.548 8.90092 50.7 8.90092 51.948C8.90092 53.076 9.14092 54.072 9.62092 54.936C10.1249 55.776 10.8329 56.436 11.7449 56.916C12.6809 57.372 13.7849 57.6 15.0569 57.6C16.1849 57.6 17.2649 57.372 18.2969 56.916C19.3529 56.46 20.3249 55.716 21.2129 54.684L25.4249 58.824C24.0089 60.528 22.3769 61.74 20.5289 62.46C18.6809 63.156 16.6289 63.504 14.3729 63.504ZM40.2797 63.504C37.6877 63.504 35.4557 63.036 33.5837 62.1C31.7117 61.14 30.2717 59.832 29.2637 58.176C28.2557 56.52 27.7517 54.6 27.7517 52.416C27.7517 50.208 28.1357 48.192 28.9037 46.368C29.6717 44.52 30.7517 42.924 32.1437 41.58C33.5357 40.212 35.1917 39.156 37.1117 38.412C39.0557 37.668 41.1797 37.296 43.4837 37.296C46.0757 37.296 48.3077 37.776 50.1797 38.736C52.0517 39.672 53.4917 40.968 54.4997 42.624C55.5077 44.28 56.0117 46.2 56.0117 48.384C56.0117 50.592 55.6277 52.62 54.8597 54.468C54.0917 56.292 53.0117 57.888 51.6197 59.256C50.2277 60.6 48.5597 61.644 46.6157 62.388C44.6957 63.132 42.5837 63.504 40.2797 63.504ZM40.8917 57.6C42.1397 57.6 43.2437 57.372 44.2037 56.916C45.1877 56.46 46.0157 55.824 46.6877 55.008C47.3837 54.168 47.9117 53.22 48.2717 52.164C48.6317 51.108 48.8117 49.992 48.8117 48.816C48.8117 47.688 48.5717 46.704 48.0917 45.864C47.6357 45.024 46.9637 44.376 46.0757 43.92C45.2117 43.44 44.1437 43.2 42.8717 43.2C41.6477 43.2 40.5437 43.428 39.5597 43.884C38.5757 44.34 37.7357 44.988 37.0397 45.828C36.3677 46.644 35.8517 47.58 35.4917 48.636C35.1317 49.692 34.9517 50.808 34.9517 51.984C34.9517 53.088 35.1797 54.072 35.6357 54.936C36.1157 55.776 36.7877 56.436 37.6517 56.916C38.5397 57.372 39.6197 57.6 40.8917 57.6ZM57.117 63L62.157 37.8H68.025L78.213 54.648L75.765 54.576L79.113 37.8H86.097L81.057 63H75.189L65.037 46.152L67.449 46.224L64.101 63H57.117ZM86.1209 63L91.1609 37.8H97.0289L107.217 54.648L104.769 54.576L108.117 37.8H115.101L110.061 63H104.193L94.0409 46.152L96.4529 46.224L93.1049 63H86.1209ZM124.737 47.556H136.437L135.393 52.884H123.693L124.737 47.556ZM123.261 57.492H136.473L135.321 63H115.125L120.165 37.8H139.893L138.777 43.308H126.069L123.261 57.492ZM153.064 63.504C150.496 63.504 148.252 63.036 146.332 62.1C144.436 61.164 142.972 59.868 141.94 58.212C140.908 56.532 140.392 54.6 140.392 52.416C140.392 50.232 140.776 48.216 141.544 46.368C142.312 44.52 143.392 42.924 144.784 41.58C146.176 40.212 147.832 39.156 149.752 38.412C151.696 37.668 153.844 37.296 156.196 37.296C158.524 37.296 160.588 37.704 162.388 38.52C164.188 39.336 165.532 40.512 166.42 42.048L161.272 46.152C160.696 45.192 159.94 44.46 159.004 43.956C158.092 43.452 157 43.2 155.728 43.2C154.504 43.2 153.388 43.416 152.38 43.848C151.396 44.28 150.544 44.892 149.824 45.684C149.104 46.476 148.552 47.412 148.168 48.492C147.784 49.548 147.592 50.7 147.592 51.948C147.592 53.076 147.832 54.072 148.312 54.936C148.816 55.776 149.524 56.436 150.436 56.916C151.372 57.372 152.476 57.6 153.748 57.6C154.876 57.6 155.956 57.372 156.988 56.916C158.044 56.46 159.016 55.716 159.904 54.684L164.116 58.824C162.7 60.528 161.068 61.74 159.22 62.46C157.372 63.156 155.32 63.504 153.064 63.504ZM171.008 63L174.932 43.452H167.192L168.344 37.8H190.916L189.764 43.452H182.06L178.136 63H171.008Z" fill="#F04444"/>
</svg>
