<svg width="70" height="70" viewBox="0 0 70 70" fill="none" xmlns="http://www.w3.org/2000/svg">
<rect width="70" height="70" rx="10" fill="#F04444"/>
<path d="M39.125 25.55C39.6738 25.55 40.2104 25.3872 40.6667 25.0823C41.1231 24.7774 41.4787 24.344 41.6888 23.8369C41.8988 23.3299 41.9538 22.7719 41.8467 22.2336C41.7396 21.6953 41.4753 21.2009 41.0872 20.8128C40.6991 20.4247 40.2047 20.1604 39.6664 20.0533C39.1281 19.9462 38.5701 20.0012 38.0631 20.2112C37.556 20.4213 37.1226 20.7769 36.8177 21.2333C36.5128 21.6896 36.35 22.2262 36.35 22.775C36.35 23.511 36.6424 24.2168 37.1628 24.7372C37.6832 25.2576 38.389 25.55 39.125 25.55ZM38.8938 32.5453C39.2218 32.808 39.6297 32.9508 40.05 32.95H43.75C44.2407 32.95 44.7112 32.7551 45.0582 32.4081C45.4051 32.0612 45.6 31.5907 45.6 31.1C45.6 30.6094 45.4051 30.1388 45.0582 29.7919C44.7112 29.4449 44.2407 29.25 43.75 29.25H40.6987L36.5813 25.9547C36.2452 25.6849 35.8254 25.5411 35.3945 25.5483C34.9636 25.5555 34.5488 25.7132 34.2219 25.994L27.7469 31.544C27.53 31.73 27.3592 31.9636 27.2477 32.2267C27.1362 32.4897 27.0872 32.775 27.1045 33.0602C27.1217 33.3453 27.2048 33.6226 27.3471 33.8703C27.4895 34.118 27.6873 34.3294 27.925 34.4878L32.65 37.6398V44.05C32.65 44.5407 32.8449 45.0112 33.1919 45.3581C33.5388 45.7051 34.0094 45.9 34.5 45.9C34.9907 45.9 35.4612 45.7051 35.8082 45.3581C36.1551 45.0112 36.35 44.5407 36.35 44.05V36.65C36.3499 36.3455 36.2747 36.0457 36.131 35.7772C35.9873 35.5088 35.7795 35.2799 35.5262 35.111L33.1351 33.5171L36.5026 30.6311L38.8938 32.5453ZM45.6 34.8C44.1364 34.8 42.7057 35.234 41.4888 36.0471C40.2719 36.8602 39.3234 38.016 38.7633 39.3681C38.2032 40.7203 38.0567 42.2082 38.3422 43.6437C38.6277 45.0791 39.3325 46.3977 40.3674 47.4326C41.4023 48.4675 42.7209 49.1723 44.1563 49.4578C45.5918 49.7433 47.0797 49.5968 48.4319 49.0367C49.784 48.4766 50.9398 47.5281 51.7529 46.3112C52.566 45.0943 53 43.6636 53 42.2C53 40.2374 52.2204 38.3552 50.8326 36.9674C49.4448 35.5796 47.5626 34.8 45.6 34.8ZM45.6 45.9C44.8682 45.9 44.1529 45.683 43.5444 45.2764C42.9359 44.8699 42.4617 44.292 42.1817 43.6159C41.9016 42.9398 41.8283 42.1959 41.9711 41.4782C42.1139 40.7604 42.4663 40.1012 42.9837 39.5837C43.5012 39.0663 44.1604 38.7139 44.8782 38.5711C45.5959 38.4283 46.3398 38.5016 47.0159 38.7816C47.692 39.0617 48.2699 39.5359 48.6764 40.1444C49.083 40.7529 49.3 41.4682 49.3 42.2C49.3 43.1813 48.9102 44.1224 48.2163 44.8163C47.5224 45.5102 46.5813 45.9 45.6 45.9ZM23.4 34.8C21.9364 34.8 20.5057 35.234 19.2888 36.0471C18.0719 36.8602 17.1234 38.016 16.5633 39.3681C16.0032 40.7203 15.8567 42.2082 16.1422 43.6437C16.4277 45.0791 17.1325 46.3977 18.1674 47.4326C19.2023 48.4675 20.5209 49.1723 21.9563 49.4578C23.3918 49.7433 24.8797 49.5968 26.2319 49.0367C27.584 48.4766 28.7398 47.5281 29.5529 46.3112C30.366 45.0943 30.8 43.6636 30.8 42.2C30.8 40.2374 30.0204 38.3552 28.6326 36.9674C27.2448 35.5796 25.3626 34.8 23.4 34.8ZM23.4 45.9C22.6682 45.9 21.9529 45.683 21.3444 45.2764C20.7359 44.8699 20.2617 44.292 19.9816 43.6159C19.7016 42.9398 19.6283 42.1959 19.7711 41.4782C19.9139 40.7604 20.2663 40.1012 20.7837 39.5837C21.3012 39.0663 21.9604 38.7139 22.6782 38.5711C23.3959 38.4283 24.1398 38.5016 24.8159 38.7816C25.492 39.0617 26.0699 39.5359 26.4764 40.1444C26.883 40.7529 27.1 41.4682 27.1 42.2C27.1 43.1813 26.7102 44.1224 26.0163 44.8163C25.3224 45.5102 24.3813 45.9 23.4 45.9Z" fill="white"/>
</svg>
