<svg width="60" height="60" viewBox="0 0 60 60" fill="none" xmlns="http://www.w3.org/2000/svg">
<path d="M30 41.155C30.4367 41.155 30.8025 41.0075 31.0975 40.7125C31.3908 40.4175 31.5375 40.0517 31.5375 39.615C31.5375 39.18 31.39 38.815 31.095 38.52C30.8 38.225 30.435 38.0767 30 38.075C29.565 38.0733 29.2 38.2208 28.905 38.5175C28.61 38.8142 28.4625 39.1792 28.4625 39.6125C28.4625 40.0458 28.61 40.4117 28.905 40.71C29.2 41.0083 29.565 41.1583 30 41.155ZM28.75 32.8825H31.25V17.8825H28.75V32.8825ZM30.0075 52.5C26.8975 52.5 23.9725 51.91 21.2325 50.73C18.4942 49.5483 16.1117 47.945 14.085 45.92C12.0583 43.895 10.4542 41.515 9.2725 38.78C8.09083 36.045 7.5 33.1208 7.5 30.0075C7.5 26.8942 8.09083 23.9692 9.2725 21.2325C10.4525 18.4942 12.0533 16.1117 14.075 14.085C16.0967 12.0583 18.4775 10.4542 21.2175 9.2725C23.9575 8.09083 26.8825 7.5 29.9925 7.5C33.1025 7.5 36.0275 8.09083 38.7675 9.2725C41.5058 10.4525 43.8883 12.0542 45.915 14.0775C47.9417 16.1008 49.5458 18.4817 50.7275 21.22C51.9092 23.9583 52.5 26.8825 52.5 29.9925C52.5 33.1025 51.91 36.0275 50.73 38.7675C49.55 41.5075 47.9467 43.89 45.92 45.915C43.8933 47.94 41.5133 49.5442 38.78 50.7275C36.0467 51.9108 33.1225 52.5017 30.0075 52.5ZM30 50C35.5833 50 40.3125 48.0625 44.1875 44.1875C48.0625 40.3125 50 35.5833 50 30C50 24.4167 48.0625 19.6875 44.1875 15.8125C40.3125 11.9375 35.5833 10 30 10C24.4167 10 19.6875 11.9375 15.8125 15.8125C11.9375 19.6875 10 24.4167 10 30C10 35.5833 11.9375 40.3125 15.8125 44.1875C19.6875 48.0625 24.4167 50 30 50Z" fill="white"/>
</svg>
